<?xml version="1.0" encoding="UTF-8" standalone="no"?>
<svg
   xmlns:dc="http://purl.org/dc/elements/1.1/"
   xmlns:cc="http://creativecommons.org/ns#"
   xmlns:rdf="http://www.w3.org/1999/02/22-rdf-syntax-ns#"
   xmlns:svg="http://www.w3.org/2000/svg"
   xmlns="http://www.w3.org/2000/svg"
   xmlns:sodipodi="http://sodipodi.sourceforge.net/DTD/sodipodi-0.dtd"
   xmlns:inkscape="http://www.inkscape.org/namespaces/inkscape"
   width="200"
   height="200"
   id="svg25"
   version="1.1"
   inkscape:version="0.48.5 r10040">
  <sodipodi:namedview
     pagecolor="#ffffff"
     id="namedview39"
     showgrid="false" />
  <defs
     id="defs4">
    <clipPath
       id="clipPath2999"
       clipPathUnits="userSpaceOnUse">
      <path
         id="path3001"
         d="m 0,841.89 595.276,0 L 595.276,0 0,0 0,841.89 z"
         inkscape:connector-curvature="0" />
    </clipPath>
  </defs>
  <metadata
     id="metadata7">
    <rdf:RDF>
      <cc:Work
         rdf:about="">
        <dc:format>image/svg+xml</dc:format>
        <dc:type
           rdf:resource="http://purl.org/dc/dcmitype/StillImage" />
        <dc:title />
      </cc:Work>
    </rdf:RDF>
  </metadata>
  <g
     inkscape:label="Layer 1"
     inkscape:groupmode="layer"
     id="layer1"
     transform="translate(0,-852.36218)">
    <path
       inkscape:connector-curvature="0"
       d="m 77.947556,871.57615 c -0.931648,1.86402 -3.726594,-1.46452 -5.456493,-1.99669 -6.257597,-2.12867 -12.38037,3.32854 -15.175316,8.25429 -2.796372,4.79236 -14.377065,-2.92906 -17.040039,12.77914 -0.398769,0.79896 -0.797537,0.66485 -1.596501,0.79896 -6.389569,0.53146 -11.315322,5.45721 -11.315322,12.11286 -0.133399,7.71999 0.133398,3.32783 -7.055134,4.92504 -12.6457401,2.92906 -20.23375452,12.51306 -19.56818928,25.42559 0.13339839,4.65896 1.73061228,9.31863 4.92575348,12.77914 6.7883378,7.45462 9.7173948,3.59391 3.1944278,11.84749 -1.9966957,5.58989 -2.7956593,9.98348 1.597214,14.77584 0.532167,0.53288 1.730612,1.19844 1.864011,1.86329 -2.3968913,4.52627 -1.996696,10.65047 1.198445,14.64458 1.197732,1.3297 4.92504,3.85928 4.791642,5.05772 -0.665565,9.3172 3.327826,14.1096 12.380369,16.1063 1.463816,0.2675 0.531454,2.2634 0.26537,3.4612 -2.262779,9.3193 0.932362,19.168 9.052544,24.8934 7.453902,5.1911 17.438094,6.1235 25.291479,1.4638 7.055134,-4.1261 3.728021,-2.929 7.055134,1.9967 3.594623,5.5906 11.049239,6.6557 16.905928,4.6597 1.065047,-0.3995 1.464529,-0.667 2.396177,-0.1334 5.990801,3.9934 14.243664,5.4565 19.035314,-0.9331 0.40019,-0.5322 0.66556,-0.7975 1.46524,-0.5322 7.58801,3.5947 15.308,1.3319 19.03602,-6.5215 0.66414,-0.1334 5.45792,2.6608 6.52154,3.1944 15.57551,6.9218 33.94597,-3.9948 32.88021,-24.2278 -0.1334,-2.9277 -3.32712,-6.1228 -0.1334,-7.1878 5.05844,-1.8641 7.72141,-2.6623 10.38367,-7.322 2.26349,-3.99337 -0.79896,-7.98605 3.46123,-10.64902 6.25617,-3.86 7.18782,-10.51565 4.52556,-17.0379 -0.53146,-1.59793 -0.79826,-1.46453 0.40019,-2.66369 2.79423,-3.06103 4.92504,-10.78244 2.52744,-14.37707 -4.52485,-6.9203 -5.19041,-4.79164 1.59864,-9.84865 8.91772,-6.65779 7.5873,-24.36126 1.19773,-32.21535 -4.39287,-5.32453 -11.18121,-7.98607 -17.97098,-8.38698 -4.65967,-0.26609 -3.32782,0.2668 -3.19514,-3.5932 0,-5.8574 -4.39144,-10.91655 -9.58328,-12.91253 -3.86071,-1.59722 -1.86401,-3.46123 -3.86071,-6.92174 -2.52957,-4.39359 -8.12089,-7.58801 -13.17862,-6.65637 -3.46122,0.53288 -2.26278,-1.73061 -4.65967,-3.99339 -3.19442,-2.79494 -8.91772,-4.92575 -12.64574,-3.72731 -8.38697,2.79495 -3.59319,1.59722 -7.45461,-4.79164 -8.65164,-13.84418 -27.953743,-16.37447 -38.870297,-3.9941 -2.928344,3.32782 -3.327112,4.92575 -5.191837,9.58399"
       style="fill:#fe5a1d;fill-opacity:1;fill-rule:evenodd;stroke:none"
       id="path3003" />
    <path
       inkscape:connector-curvature="0"
       d="m 76.351056,918.56663 0,0.93165 -0.266084,0 -0.266796,-0.79825 c -4.259475,-9.98348 -8.385552,-19.96696 -12.64574,-29.81847 -1.464529,-3.59462 -1.996696,-9.31791 1.730612,-11.71409 2.662261,-1.7299 6.256171,-1.7299 8.651635,0.39949 0.400195,0.26679 0.666279,0.66556 0.932362,1.06504 1.198446,1.9967 1.864011,3.06175 1.864011,5.32524 l 0,34.60939 z"
       style="fill:#ffdd00;fill-opacity:1;fill-rule:evenodd;stroke:none"
       id="path3007" />
    <path
       inkscape:connector-curvature="0"
       d="m 73.82148,920.29796 0.133398,0.26537 -0.133398,0.13339 -0.266797,0.13269 -0.26537,-0.13269 c -7.587301,-6.92173 -15.175315,-13.97687 -22.762616,-21.032 -3.461225,-3.19514 -6.523681,-8.65306 -2.529576,-12.64645 2.796372,-2.92763 7.986069,-3.19514 10.250275,0.53216 0.131972,0.2668 0.266083,0.53288 0.398768,0.79897 l 15.175316,31.94856 z"
       style="fill:#ffdd00;fill-opacity:1;fill-rule:evenodd;stroke:none"
       id="path3009" />
    <path
       inkscape:connector-curvature="0"
       d="m 70.094885,921.49497 0.132685,0.13412 -0.132685,0.26608 -0.133398,0.13268 -0.266797,0 c -9.85008,-3.46122 -19.700874,-7.05513 -29.551667,-10.64904 -2.929058,-1.06576 -5.457921,-3.32783 -5.857402,-6.65636 -0.398769,-3.99268 2.662261,-7.18854 6.656365,-7.18854 0.665566,-0.13268 1.863298,-0.13268 2.396178,0.4002 l 26.756721,23.56086 z"
       style="fill:#ffdd00;fill-opacity:1;fill-rule:evenodd;stroke:none"
       id="path3011" />
    <path
       inkscape:connector-curvature="0"
       d="m 124.93803,917.1021 c -0.26608,0.4002 -0.53145,1.19916 -0.93165,1.46453 -0.13268,-0.53288 -0.13268,-1.33113 -0.13268,-1.9967 0,-10.64904 0.13268,-20.89931 1.06433,-31.41496 0.26537,-3.06174 1.06505,-5.99009 4.12822,-7.18925 2.26206,-0.79825 4.92433,-0.39876 6.92031,0.79968 1.73061,1.19773 3.59462,3.32783 2.66297,5.45792 l -13.7115,32.87878 z"
       style="fill:#ffdd00;fill-opacity:1;fill-rule:evenodd;stroke:none"
       id="path3013" />
    <path
       inkscape:connector-curvature="0"
       d="m 128.39926,919.23291 -0.39949,0.13197 -0.26608,-0.13197 -0.26608,-0.26608 0,-0.4002 14.10955,-28.48662 c 0.93308,-1.86401 2.39761,-3.59391 4.39359,-4.39287 6.12349,-2.2635 12.24626,5.72471 7.18853,10.51636 l -24.76002,23.02941 z"
       style="fill:#ffdd00;fill-opacity:1;fill-rule:evenodd;stroke:none"
       id="path3015" />
    <path
       inkscape:connector-curvature="0"
       d="m 130.39595,922.16125 c -0.26679,0.13269 -0.79825,0.26609 -0.53288,-0.26608 0.53288,-0.26608 1.06576,-0.66557 1.59936,-1.06576 1.4631,-1.06433 2.66154,-2.39546 4.12607,-3.59391 l 17.4381,-14.90852 c 1.33041,-1.19773 5.4572,-4.12679 6.78833,-4.12679 3.32783,-0.26608 5.99009,1.8633 6.78906,5.05844 0.79825,3.46122 -0.93165,6.52225 -4.25948,7.5873 l -31.94856,11.31532 z"
       style="fill:#ffdd00;fill-opacity:1;fill-rule:evenodd;stroke:none"
       id="path3017" />
    <path
       inkscape:connector-curvature="0"
       d="m 54.120606,966.88895 0.266797,0.13126 0.131972,0.40091 -0.131972,0.39876 -0.400195,0.13269 c -10.915841,1.06505 -21.964367,2.26421 -32.879494,3.32783 -5.059152,0.53359 -7.853384,-4.26019 -6.789051,-8.78432 0.399482,-1.46453 1.197732,-2.92906 2.396178,-3.86 1.996696,-1.46453 4.525558,-1.33327 6.789051,-0.66556 l 30.616714,8.91843 z"
       style="fill:#ffdd00;fill-opacity:1;fill-rule:evenodd;stroke:none"
       id="path3019" />
    <path
       inkscape:connector-curvature="0"
       d="m 56.915552,970.34946 1.597927,-0.26608 0.798251,0 0.133398,0.1334 -0.53288,0.26465 c -10.649044,5.85812 -21.431486,11.84821 -32.081243,17.70561 -4.258762,2.26206 -9.450599,-1.33042 -9.716682,-5.8574 -0.399482,-4.79165 4.39216,-7.58802 8.518949,-8.11947 l 31.28228,-3.86071 z"
       style="fill:#ffdd00;fill-opacity:1;fill-rule:evenodd;stroke:none"
       id="path3021" />
    <path
       inkscape:connector-curvature="0"
       d="m 58.912248,973.27781 0.133398,-0.1334 0.132685,0.1334 0.133399,0.13268 0,0.13411 c -7.454616,9.3172 -14.775834,18.50243 -22.097765,27.8211 -3.060316,3.86 -11.714091,2.2634 -12.246258,-2.6623 -0.266083,-1.99741 0.266084,-5.19255 2.130094,-6.2576 l 31.814447,-19.16799 z"
       style="fill:#ffdd00;fill-opacity:1;fill-rule:evenodd;stroke:none"
       id="path3023" />
    <path
       inkscape:connector-curvature="0"
       d="m 143.04169,968.75296 0,-0.1334 0,-0.26679 0.1334,0 c 10.91584,-3.46123 21.83168,-6.92317 32.74752,-10.25028 3.46051,-1.06505 6.92174,0.13268 8.38627,3.46122 0.79896,1.73062 1.06504,3.86 0.39948,5.59061 -1.33113,3.32711 -4.92575,4.25947 -8.25358,3.99482 l -33.27969,-2.26421 -0.1334,-0.13197 z"
       style="fill:#ffdd00;fill-opacity:1;fill-rule:evenodd;stroke:none"
       id="path3025" />
    <path
       inkscape:connector-curvature="0"
       d="m 143.04169,971.2804 0,-0.26537 0.1334,-0.1334 0.2668,-0.1334 c 11.5814,1.59721 23.0287,3.06246 34.6101,4.52698 1.73062,0.26609 3.86071,1.9967 4.52627,3.59391 0.79897,1.46382 1.59651,2.79424 1.06505,4.52699 -1.06505,2.92692 -4.79307,6.25474 -8.12089,5.32238 -0.39948,0 -0.79825,-0.26537 -1.06505,-0.39805 l -31.28228,-16.77325 -0.1334,-0.26679 z"
       style="fill:#ffdd00;fill-opacity:1;fill-rule:evenodd;stroke:none"
       id="path3027" />
    <path
       inkscape:connector-curvature="0"
       d="m 142.24415,974.60965 0.13198,-0.26751 0.40019,-0.26537 0.39877,0.1334 c 9.31791,5.32309 18.50386,10.78244 27.68837,16.23893 1.46524,0.79968 2.66226,1.86473 3.59391,3.32854 3.86071,6.25756 -4.65824,14.24436 -10.38296,8.91916 -0.39877,-0.2661 -0.66485,-0.6656 -1.06505,-1.0651 l -20.63323,-26.62328 -0.13198,-0.39877 z"
       style="fill:#ffdd00;fill-opacity:1;fill-rule:evenodd;stroke:none"
       id="path3029" />
    <path
       inkscape:connector-curvature="0"
       d="m 104.43819,1003.8952 0,-0.2661 0.26609,-0.1333 0.1334,0 0.26679,0.1333 c 6.25546,8.9178 12.51163,17.7028 18.63512,26.6227 1.46381,2.2627 2.13152,4.7916 0.66699,7.0551 -2.79566,4.5263 -11.18264,5.0584 -12.51306,-0.9324 l -7.45533,-32.4793 z"
       style="fill:#ffdd00;fill-opacity:1;fill-rule:evenodd;stroke:none"
       id="path3031" />
    <path
       inkscape:connector-curvature="0"
       d="m 97.251089,1004.1606 c 0.531453,-0.3995 0.664851,-0.6648 0.797536,0.1334 -0.266083,0.5329 -0.53288,1.0658 -0.797536,1.5979 -3.32854,9.1845 -4.260902,18.9019 -6.656366,28.3533 -1.065761,3.8607 -3.062456,7.588 -7.854098,7.0544 -4.793069,-0.5315 -8.25358,-5.5899 -5.191837,-9.8494 l 19.702301,-27.2896 z"
       style="fill:#ffdd00;fill-opacity:1;fill-rule:evenodd;stroke:none"
       id="path3033" />
    <path
       inkscape:connector-curvature="0"
       d="m 100.7116,1002.8295 0.13268,-0.2668 0.2668,-0.132 0.26609,0.132 0.13268,0.2668 c 1.86472,10.9158 3.72802,21.9643 5.58989,33.0136 0.66771,3.86 -1.73061,7.5873 -5.72257,8.3862 -3.861425,0.9317 -6.922454,-1.9974 -7.321223,-5.8566 -0.133398,-2.1301 0.531454,-4.1275 0.930936,-6.1242 l 5.724717,-29.419 z"
       style="fill:#ffdd00;fill-opacity:1;fill-rule:evenodd;stroke:none"
       id="path3035" />
    <path
       inkscape:connector-curvature="0"
       d="m 156.35371,1035.4429 c 0.79896,1.0657 0.13411,1.3325 -0.93165,1.7306 -1.8633,0.7982 -4.12608,1.9974 -6.25688,2.1308 -6.12349,0.5322 -12.64574,-1.7306 -16.23965,-6.7898 l -26.09187,-36.73945 c -1.46453,-2.13009 2.13009,-1.33184 3.06245,-1.06505 5.85812,0.79897 11.58141,2.66084 17.30613,4.65825 1.19702,0.39948 3.59248,1.06505 4.39144,2.13085 l 24.76003,33.9438 z"
       style="fill:#ffdd00;fill-opacity:1;fill-rule:evenodd;stroke:none"
       id="path3037" />
    <path
       inkscape:connector-curvature="0"
       d="m 133.05893,1000.5674 c -0.2668,-0.5322 -0.4002,-0.79967 -0.4002,-1.33112 l 1.33185,-22.76333 c 1.46452,0.13268 2.12938,1.59721 3.06102,2.52886 0.39877,0.39948 0.79968,0.79896 1.06648,1.19702 7.71927,10.1183 15.44068,20.23447 23.02727,30.35067 0.66628,0.9337 1.19916,2.3976 1.73061,3.4612 2.26421,5.3245 1.9967,10.7831 -0.39876,15.975 -0.93237,1.9967 -2.39547,3.4612 -4.12608,5.0577 -0.66557,0.2682 -0.93236,-0.5322 -1.33184,-0.9309 l -23.96035,-33.5451 z"
       style="fill:#ffdd00;fill-opacity:1;fill-rule:evenodd;stroke:none"
       id="path3039" />
    <path
       inkscape:connector-curvature="0"
       d="m 94.720799,993.91033 c 1.331131,-0.13269 1.597214,-0.13269 0.799677,1.06504 -8.653775,11.44873 -17.306123,23.02943 -25.958471,34.61083 -3.328539,4.3929 -7.854098,8.1209 -13.710787,8.2529 -4.126789,0.1326 -6.389569,-0.6656 -10.383673,-2.2628 -1.063621,-0.5329 -1.330417,-0.7983 -0.532167,-1.8633 7.986783,-10.9166 15.973566,-21.8317 24.09446,-32.7468 1.197732,-1.59795 4.126077,-2.5296 5.856689,-3.19517 3.728021,-1.19701 7.588014,-2.12866 11.315323,-2.79566 2.794946,-0.53216 5.72329,-0.79682 8.518949,-1.06504"
       style="fill:#ffdd00;fill-opacity:1;fill-rule:evenodd;stroke:none"
       id="path3041" />
    <path
       inkscape:connector-curvature="0"
       d="m 65.834697,974.34214 c 0.798964,-0.66557 0.798964,0.79896 0.931649,1.33113 1.996695,7.9875 1.464529,13.7115 1.597214,21.4322 0,1.19702 0,2.39618 -0.665566,3.46193 -7.719986,10.2496 -15.308,20.4998 -23.029413,30.7494 -0.531453,0.6656 -1.597214,2.6623 -2.528863,1.5972 -4.392159,-4.7923 -5.990087,-8.6523 -5.323808,-15.5741 0.266083,-3.7273 1.863297,-6.9224 3.991965,-9.8515 l 25.026822,-33.14626 z"
       style="fill:#ffdd00;fill-opacity:1;fill-rule:evenodd;stroke:none"
       id="path3043" />
    <path
       inkscape:connector-curvature="0"
       d="m 191.09721,928.9503 c 0.93165,-0.26679 2.66298,-1.06576 2.79566,0.39877 0.1334,2.1301 0.2668,4.79307 -0.26679,6.92174 -1.46382,5.99151 -5.5899,11.18192 -11.57998,13.17933 -14.37707,4.52556 -28.62073,9.18594 -42.99709,13.84419 -1.86401,0.66485 0.13198,-3.32854 0.39877,-3.86 2.12938,-4.79235 5.45792,-9.05325 8.91915,-13.04593 1.46524,-1.86401 2.92905,-3.99411 4.79235,-5.45792 l 37.93793,-11.98018 z"
       style="fill:#ffdd00;fill-opacity:1;fill-rule:evenodd;stroke:none"
       id="path3045" />
    <path
       inkscape:connector-curvature="0"
       d="m 172.99284,914.83932 c 6.25689,-2.13009 13.84561,1.06576 17.70632,6.92245 0.93093,1.19702 1.7299,2.52886 2.26207,3.99339 -0.1334,0.79897 -0.26609,1.46382 -1.33114,1.73062 -12.91253,3.99339 -25.95775,7.85409 -39.00297,11.84748 -0.93237,0.26609 -2.39618,0 -3.32854,-0.26608 -4.25948,-0.79896 -8.78504,-2.26278 -12.77914,-3.86142 -2.66155,-1.1963 -5.32381,-2.79494 -7.98679,-4.12536 -1.19844,-0.53288 -0.26608,-0.66628 0.5336,-0.93236 l 43.92659,-15.30872 z"
       style="fill:#ffdd00;fill-opacity:1;fill-rule:evenodd;stroke:none"
       id="path3047" />
    <path
       inkscape:connector-curvature="0"
       d="m 7.9290943,928.68351 c 0.2660835,-1.59722 1.0643337,-1.06434 2.2627787,-0.66485 12.246258,3.99339 24.493229,8.38626 36.607516,12.51234 0.931648,0.39948 1.996695,1.59721 2.794232,2.39617 3.062456,3.46123 5.991514,7.58731 8.520377,11.58141 1.33113,2.26278 2.662261,4.65896 3.859993,7.05513 0.53288,0.93237 0.665565,1.19845 -0.532167,0.79897 -12.246971,-3.7266 -24.625914,-7.58944 -37.006284,-11.44872 -4.925753,-1.59722 -9.851507,-3.86 -13.045934,-7.8541 -3.4605117,-4.25948 -3.9926785,-8.91772 -3.4605117,-14.37635"
       style="fill:#ffdd00;fill-opacity:1;fill-rule:evenodd;stroke:none"
       id="path3049" />
    <path
       inkscape:connector-curvature="0"
       d="m 50.925465,922.02785 c 7.055134,2.26278 14.110268,4.65896 21.032718,7.05585 0.53288,0.13269 1.065047,0.26537 0.664852,0.79825 -3.194428,1.9967 -6.521541,3.72731 -9.983479,5.05844 -3.06103,1.06433 -6.256171,1.86401 -9.317913,2.79566 -1.597214,0.39806 -5.058439,1.7299 -6.522254,1.19773 L 11.921772,926.95289 c -1.463815,-0.39876 -3.3271124,-0.39876 -2.6622605,-2.26206 1.0657605,-2.52958 3.0624565,-4.66038 5.1925505,-6.25688 3.993391,-3.06103 9.716682,-5.19184 14.642435,-3.59463 l 21.830968,7.18853 z"
       style="fill:#ffdd00;fill-opacity:1;fill-rule:evenodd;stroke:none"
       id="path3051" />
    <path
       inkscape:connector-curvature="0"
       d="m 107.89871,861.45999 c 4.2609,1.46453 7.45533,5.9908 9.31934,9.98348 0.66485,1.59721 1.33184,3.46122 1.33184,5.32452 -0.2668,15.04263 -0.53359,30.21795 -0.79968,45.39326 0,1.59722 -1.06504,0.13269 -1.59792,-0.26608 -1.8633,-1.9967 -3.7266,-3.86142 -5.59061,-5.72472 -3.99339,-4.53912 -6.18789,-7.25874 -8.96031,-12.75202 -0.64233,-1.76741 -0.78929,-2.59715 -1.02317,-4.41999 0.26608,-6.52297 0.53288,-13.04522 0.66557,-19.43479 0.1334,-6.25617 0.26608,-12.38037 0.39877,-18.50314 0,-0.93236 0.26679,-1.06433 1.06504,-0.93236 z"
       style="fill:#ffdd00;fill-opacity:1;fill-rule:evenodd;stroke:none"
       id="path3053"
       sodipodi:nodetypes="cccccccccccc" />
    <path
       inkscape:connector-curvature="0"
       d="m 99.512441,899.05196 c -0.266083,4.92504 -2.794233,7.2677 -5.456494,11.26109 -2.795659,3.99411 -6.123485,7.98821 -9.984192,11.04924 -0.665565,0.39948 -1.065047,1.06505 -1.065047,-0.26608 l 0,-42.86369 c 0.283404,-2.03316 0.36495,-2.78533 0.532881,-3.99339 0.266083,-1.06505 0.398768,-2.13009 0.79825,-3.06174 1.864011,-5.72329 7.854098,-10.51636 13.97687,-11.04924 0.931649,-0.13197 1.464529,-0.13197 1.597927,0.93236 0.133394,1.86401 0.266794,3.72659 0.133394,5.5906 z"
       style="fill:#ffdd00;fill-opacity:1;fill-rule:evenodd;stroke:none"
       id="path3055"
       sodipodi:nodetypes="cccsccccccc" />
    <path
       inkscape:connector-curvature="0"
       d="m 100.31212,986.72322 c -15.974281,0 -29.019503,-13.17862 -29.019503,-29.15361 0,-16.10696 13.045222,-29.15219 29.019503,-29.15219 15.97356,0 29.01879,13.04523 29.01879,29.15219 0,15.97499 -13.04523,29.15361 -29.01879,29.15361 m 0,-60.56858 c -17.172727,0 -31.282282,14.11027 -31.282282,31.41497 0,17.17201 14.109555,31.28371 31.282282,31.28371 17.17272,0 31.28156,-14.1117 31.28156,-31.28371 0,-17.3047 -14.10884,-31.41497 -31.28156,-31.41497"
       style="fill:#ffdd00;fill-opacity:1;fill-rule:evenodd;stroke:none"
       id="path3005"
       sodipodi:nodetypes="csssccsssc" />
    <path
       sodipodi:nodetypes="ccccccccccccccccccccccccccccccccccccccccccccccccccccccccccccccccccccccccccsscsccccsscc"
       inkscape:connector-curvature="0"
       id="path3788"
       d="m 120.54101,956.62195 -40.435595,0 0,-3.00116 18.098649,0 0.04577,-1.62659 -14.456009,0 0,-2.68043 14.410188,0 0.04577,-1.60368 -11.50066,0 -0.985122,-3.04698 c 5.391401,0.13747 9.538051,0.16803 12.439967,0.0916 l 0,-2.10769 -13.60836,0 0,4.9714 -4.123742,0 0,-8.33913 17.411364,0 c -0.259658,-0.64143 -0.557483,-1.26763 -0.893481,-1.87859 l 4.444482,-0.66438 c 0.38181,0.50405 0.79418,1.35171 1.23712,2.54297 l 17.25101,0 0,8.38496 -4.12375,0 0,-5.01723 -13.60836,0 0,1.92441 c 2.68805,4e-5 6.39178,-0.28252 11.1112,-0.84766 l 1.32876,2.95535 c -3.43649,0.4124 -7.58313,0.69495 -12.43996,0.84766 l 0,1.78696 14.59347,0 0,2.68043 -14.59347,0 0,1.62659 18.35066,0 z m -3.39064,10.8592 -33.814688,0 0,-9.16388 33.814688,0 z m -4.12374,-2.95535 0,-3.16154 -5.63577,0 0,3.16154 z m -9.7137,0 0,-3.16154 -5.819065,0 0,3.16154 z m -9.942813,0 0,-3.16154 -5.956508,0 0,3.16154 z m 12.300143,6.29944 -1.53259,2.42277 c -1.82272,-1.2523 -4.550104,-2.31962 -7.385277,-2.52047 l 1.045683,-2.46009 c 2.467454,0.12296 6.296064,1.44029 7.872184,2.55779 z m -17.22572,-0.96148 c -1.557876,3.22262 -3.42119,5.95652 -5.589966,8.20166 l -3.230267,-2.65751 c 2.016054,-1.97024 3.718999,-4.3834 5.108865,-7.23947 z m 32.55468,6.04815 -3.27609,2.3597 c -1.3288,-2.3826 -3.28377,-4.88741 -5.86489,-7.51438 l 3.09281,-2.19933 c 2.52003,2.27571 4.53608,4.72704 6.04817,7.35401 z m -9.04933,-3.80301 c -0.33605,2.07714 -0.90497,3.57392 -1.70678,4.49031 -0.80188,0.91638 -2.15736,1.37457 -4.06647,1.37457 l -10.309351,0 c -2.077174,0 -3.482294,-0.40091 -4.215383,-1.20275 -0.733129,-0.80184 -1.099688,-2.02751 -1.099677,-3.677 l 0,-4.30703 4.032113,0 0,4.35285 c -2.3e-5,0.35128 0.16417,0.66819 0.492555,0.95075 0.328352,0.28254 0.668179,0.42382 1.019484,0.42382 l 9.942789,0 c 1.20657,0 1.97021,-1.26766 2.29097,-3.80301 z"
       style="fill:#ffdd00;fill-opacity:1" />
  </g>
</svg>
